<?xml version="1.0" encoding="UTF-8"?>
<!DOCTYPE svg PUBLIC "-//W3C//DTD SVG 1.0//EN" "http://www.w3.org/TR/2001/REC-SVG-20010904/DTD/svg10.dtd">
<!-- Creator: CorelDRAW -->
<svg xmlns="http://www.w3.org/2000/svg" xml:space="preserve" width="425.142mm" height="73.2788mm" version="1.0" style="shape-rendering:geometricPrecision; text-rendering:geometricPrecision; image-rendering:optimizeQuality; fill-rule:evenodd; clip-rule:evenodd"
viewBox="0 0 42115.22 7259.11"
 xmlns:xlink="http://www.w3.org/1999/xlink"
 xmlns:xodm="http://www.corel.com/coreldraw/odm/2003">
 <defs>
  <style type="text/css">
   <![CDATA[
    .fil4 {fill:#080607}
    .fil2 {fill:#1A1A18}
    .fil6 {fill:#737474}
    .fil3 {fill:#828586}
    .fil0 {fill:#F65022}
    .fil5 {fill:#F83B12}
    .fil1 {fill:white}
   ]]>
  </style>
 </defs>
 <g id="Слой_x0020_1">
  <metadata id="CorelCorpID_0Corel-Layer"/>
  <g id="_1573612702864">
   <path class="fil0" d="M26604.67 4627.95c38.7,97.21 -55.14,213.71 -91.78,289.82 -158.22,328.73 -124.25,231.14 -640.35,241.1 -81.72,1.58 -163.34,-0.39 -244.91,2.86 -38.28,1.53 -83.05,6.52 -120.24,-5.68 -89.51,-29.33 -33.43,-55.56 -32.84,-56.37l253.44 -473.68c91.52,-157.85 170.7,-308.21 259.41,-473.85l518.8 -948.85c113.11,-238.03 495.72,-902.17 649.04,-1186.23 48.75,-90.3 84.26,-146.52 130.98,-235.09 84.66,-160.48 180.12,-318.73 258.36,-471.15l1040.65 0.2 644.41 3796.03 -962.66 -4.25 -86.51 -702.19 -1476.7 1.53 -99.11 225.8zm13453.06 -2107.84c49.5,46.97 33.41,-68.13 37.82,86.63l-50.33 169.09c-13.33,40.77 -24.46,72.84 -40.05,109.32l-40.34 82.53c-1.76,3.54 -3.95,8.11 -5.72,11.65 -169.56,341.7 -259.93,398.53 -554.04,598.19 -140.81,95.57 -266.43,122.24 -286.25,148.59 -48.86,64.92 -1.27,4.29 -14.56,49.32 -21.89,74.14 45.09,-5.22 -24.42,49.48 72.85,194.6 199.3,451.45 290.02,641.72 57.26,120.08 259.04,537.93 278.39,640.91l-988.7 -5.21 -483.18 -1342.31c-566.56,5.96 -487.43,-112.38 -570.67,340.41l-194.94 1007.31 -859.77 -4.92 739.04 -3783.94c221.28,-36.91 753.22,-7.61 1006.07,-6.71 488.26,1.73 900.89,-27.91 1332.34,189.32 335.05,168.69 524.13,637.47 429.3,1018.62zm-10209.84 1599.68c96.19,14.61 336.5,145.44 473.09,190.5 381.73,125.92 1372.1,230.86 1452.91,-276.59 104.68,-657.36 -1153.68,-261.54 -1611.7,-946.73 -196.48,-293.94 -122.38,-745.78 24.19,-1043.68 448.6,-911.75 1991.9,-947.24 2759.72,-508.05 -21.28,79.94 -106.17,258.31 -145.59,346.06 -35.9,79.89 -110.09,284.24 -148.3,338.96 -112.85,-15.73 -401.29,-260.91 -1065.08,-221.66 -659.33,39 -623.81,512.79 -485.87,637.71 160.58,145.41 703.49,211.48 976.18,300.67 338.81,110.83 556.04,276.44 623.72,648.95 74.39,409.52 -71.14,776.23 -252.05,1019.03 -416.28,558.65 -1266.33,628 -1946.34,533.62 -188.53,-26.16 -355.04,-59.83 -527.45,-120.15 -100.57,-35.19 -368.4,-133.54 -426.25,-193.76 19.39,-83.21 115.62,-243.62 156.56,-344.19 50.25,-123.48 116.82,-236.15 142.27,-360.68zm-4591.43 260.8c19.26,15.86 46.42,-17.95 35.52,112.72 -2.14,25.58 -10.19,70.69 -12.69,95.33 -6.55,64.73 -18.07,128.6 -19.22,193.28 -2.24,126.51 -9.89,292.61 -68.99,362.71 -57.14,32.52 -1769.4,5.53 -1991.97,8.41 -181.5,2.35 -473.61,21.22 -643.24,-0.94 -66.72,-171.83 46.51,-499.26 74.58,-694.81 33.86,-235.82 89.35,-447.8 118.21,-681.03 31.15,-26.02 -35.97,-61.36 48.9,-5.12l452.25 -2456.33 900.27 -5.3c-17.07,182.47 -235.22,1207.33 -288.92,1523.87 -47.56,280.3 -260.04,1340.25 -272.39,1518.19 116.23,28.01 1041.14,9.36 1287.79,9.13 57.41,-0.06 370.54,-31.21 379.89,19.88zm10623.6 -949.78c79.17,72.92 5.04,163.11 -23.47,176.8 -81.39,39.08 -1268.09,-27.69 -1457.06,24.7 -30.63,100.65 -145.64,594.04 -118.89,676.53 161.74,31.32 965.29,11.94 1237.19,14.38 121.54,1.1 359.82,-25.16 368.03,34.37 28.62,53.01 -80.26,667.28 -123.41,748.42l-2585.42 -1.65 737.64 -3793.6 2576.76 8.9 -109.9 719.06c-167.53,49.31 -1404.76,-1.01 -1734.75,33.91l-138.92 757.56c188.44,51.59 1163.71,-6.48 1477.77,18.77l-105.57 581.85zm-13918.47 -3411.22c-214.84,36.57 -472.58,203.07 -561.27,297.64 -133.79,142.67 -245.74,378.48 -284.4,592.38l-216.93 1526.46c-69.49,512.75 -145.55,1021.47 -217.21,1532.04 -48.92,348.55 -226.12,1245.29 -178.2,1540.51 75.76,466.7 444.56,782.91 930.77,813.2 273.02,17.01 594.97,0.5 873.63,0.64 291.22,0.15 582.45,0.84 873.66,0.86l15726.01 -0.34c354.72,0.63 1429.68,41.74 1695.96,-45.05 105.41,-34.36 200.54,-91.3 277.7,-142.93 286.38,-191.58 418.4,-471.37 477.66,-836.62 199.57,-1229.9 448.97,-2493.73 650.52,-3716.69 35.36,-214.51 120.76,-543.83 103.43,-751.87 -39.96,-480.14 -422.33,-805.87 -933.71,-820.58 -572.4,-16.46 -1172.15,-1.51 -1747.36,-0.63 -1164.7,1.75 -2329.98,1.6 -3494.67,-0.41 -2329.18,-4.03 -4660.59,12.65 -6989.33,0.17l-6115.67 -0.15c-232.99,-0.18 -659.97,-24.49 -870.59,11.37z"/>
   <path class="fil1" d="M38853.15 2976.23c-261.65,165.3 -703.68,148.03 -1043.33,131.9 -6.76,-113.76 160.07,-957.25 200.53,-1034.36 123.59,-43.53 859.3,-18.86 932.34,94.93 77.75,27.9 133.28,83.48 166.72,166.39 35.73,88.57 39.21,178.77 15.42,277.42 -39.36,163.29 -161.31,306.05 -271.69,363.71zm226.69 848.69l-56.35 -116.33c118.35,-92.96 403.35,-118.2 679.84,-430.12l118.02 -143.43c115.86,-164.74 213.79,-403.27 236.37,-614.92 94.83,-381.15 -94.26,-849.93 -429.3,-1018.62 -431.44,-217.22 -844.07,-187.58 -1332.34,-189.32 -252.84,-0.9 -784.78,-30.2 -1006.07,6.71l-739.04 3783.94 859.77 4.92 194.94 -1007.31c83.24,-452.79 4.11,-334.45 570.67,-340.41l483.18 1342.31 988.7 5.21c-19.36,-102.97 -221.13,-520.83 -278.39,-640.91 -90.72,-190.27 -217.17,-447.12 -290.02,-641.72z"/>
   <path class="fil2" d="M16123.8 3279.14c-31.45,38.81 -41.16,42.09 -126.75,-76.53 -125.12,-173.46 -193.62,-285.52 -342.66,-461.1 -150.02,-176.73 -394.69,-535.96 -529.16,-694.48 -28.44,-33.53 -37.19,-44.23 -67.35,-88.46l-120.96 -176.57c-30.81,-39.46 -33.27,-27.16 -66.4,-72.45 -16.71,-22.85 -12.91,-21.83 -27.25,-42.47l-402.42 -523.71c-91.57,-117.22 -55.27,-154.25 -209.47,-173.52 -139.27,-17.41 -326.55,2.9 -451.14,-6.82l-76.08 -10.23c-3.58,0.05 -8.86,0.05 -12.07,0.45 -38.01,4.63 -7.83,-4.07 -30.9,13.38 -47.57,76.21 -9.55,768.85 -11.21,922.52l-6 2358.9c0.62,144.92 -16.01,336.43 -3.27,471.78 -20.21,15.33 8,10.2 -34.13,0.09 22.55,59.74 -2.5,38.33 85.71,43.79 19.9,1.23 80.06,-3.72 106.13,-4.02l645.43 -2.33c14.66,-551.14 3.15,-1246.69 0.35,-1819.81l-8.1 -516.47c5.92,-90.13 -15.91,-27.33 26.25,-53.91l-5.45 -34.98c56.35,11.91 40.52,4.28 70.5,50.79l288.09 375.18c27.99,39.08 18.57,43.47 43.81,78.37 23.71,32.77 42.99,37.16 65.95,72.9 98.63,153.58 78.22,90.97 114.82,147.32 27.83,42.85 12.04,33.17 49.2,74.94 104.19,117.1 38.5,76.78 110.17,152.08l240.11 303.94c28.91,36.97 30.92,58.58 51.57,86.14 15.24,20.33 38.07,34.96 58.39,62.23 36.07,48.41 17.19,45.44 50.05,91.03 22.41,31.1 40.89,36.05 60.88,60.11 33.87,40.74 16.71,44.65 53.44,87.47 27.34,31.87 41.38,26.69 70.78,70.4l512.47 676.78c95.92,5.31 565.77,20.57 617.28,-10.19 33.22,-27.92 14.9,-124.51 13.68,-201.52 -1.29,-81.19 0.65,-163.23 0.55,-244.63l0.24 -1432.82c-1.81,-259.28 -18.09,-1779.98 9.39,-1905.37l-796.92 -0.76c-30.9,305.06 27.89,2283.31 -17.56,2352.56z"/>
   <path class="fil2" d="M6815.62 2482.18c-47.93,36.4 -23.86,5.49 -43.48,68.45 41.57,2.5 38.96,-16.28 31.86,31.41 -97.39,50.63 44.86,24.24 -232.2,169.8 -108.45,56.98 -228.57,64.65 -356.74,64.33 -145.48,-0.36 -697.05,10.77 -787.47,-35.8 -45.03,-209.08 -4.57,-852.15 -9.27,-1113.21 157.8,-110.29 108.42,-55.76 534.61,-55.25 477.73,0.56 773.77,-45.26 897.14,356.87 25.01,81.54 46.43,410.04 -2.91,500.11 -30.86,56.34 13.9,52.42 -31.53,13.28zm-1248.57 997.19c70.31,-59.14 140.82,-40.2 298.53,-36.48 117.85,2.78 209.49,-29.6 280.53,19.67l712.99 1154.27c19.44,33 47.67,74.95 67.72,105.5l907.87 -15.5 -851.48 -1350.01 -0.91 -36.42 -0.84 -52.22c59.2,-13.18 208.01,-92.9 258.89,-125.43 56.09,-35.86 155.53,-127.79 196.18,-171.68 52.31,-56.49 104.71,-143.64 146.12,-223 25.14,-48.19 41.03,-91.78 52.41,-142.49 16.26,-72.43 22.69,-64.09 38.17,-130.54 37.23,-159.91 20.25,-558.63 -19.49,-717.06 -43.15,-172.02 -170.74,-361.44 -277.1,-455.06 -141.06,-124.18 -25.31,-29.89 -139.96,-100.64 -314.42,-194.02 -605.13,-232.62 -1004.16,-236.59 -494.57,-4.91 -990.14,1.06 -1485.24,-3.06 -58.05,-15.56 -19.67,18.85 -37.08,-36.03l-103.29 0.97c-27.01,282.04 -6.13,669.6 -5.87,961.57 0.3,332.57 -18.09,2772.22 9.82,2877.5 148.67,0.86 809.41,25.63 886.64,-12.63 32.34,-30.89 13.65,-1129.77 12.63,-1257.32l56.94 -17.33z"/>
   <path class="fil2" d="M1799.59 1571.49c272.61,-47.42 643.5,10.35 876.79,170.95 161.51,111.2 163.1,103.26 278.61,260.78 17.59,23.98 13.47,16.25 32.19,38.45 39.65,47.04 26.34,29.24 50.39,86.65 33.66,80.36 60.41,126.52 88.32,227.34 57.98,209.42 75.5,627.32 21.89,830.36 -65.82,249.3 -148,455.44 -309.9,620.41 -332.62,338.95 -910.61,415.99 -1372.23,195.14l-320.21 -255.98c-2.33,-2.84 -5.52,-6.86 -7.85,-9.72 -2.35,-2.88 -5.62,-6.86 -7.94,-9.76l-70.96 -103.31c-277.91,-445.19 -248.35,-1192.49 -6.03,-1582.82 164.02,-264.21 449.74,-416.78 746.92,-468.48zm-1384.2 -21.42c43.59,30.44 62.99,-28.34 -29.71,98.47 -55.84,76.39 -70.06,79.05 -124.74,187.42 -182.38,361.45 -192.55,688.99 -202.04,1101.62 -6.28,273.55 87.34,652.15 202.71,882.08 123.92,246.97 276.14,409.98 490.31,580.32l134.31 87.13c181.5,141.42 568.07,238.23 803.37,271.71 665.99,94.73 1322.16,-99.47 1788.58,-557 124.55,-122.17 334.21,-475.32 379.99,-676.59 101.58,-446.59 152.18,-1061.7 -29.53,-1492.03 -47,-111.32 -84.74,-180.96 -143.63,-285.62 -30.19,-53.67 -55.64,-83.24 -86.08,-124.01 -86.98,-116.45 -187.99,-242.78 -317.19,-331.76 -450.46,-310.22 -775.51,-394.59 -1330.22,-379.31l-366.91 10.26c-58.87,-16.18 -9.16,25.18 -45.2,-30.86 -214.32,23.84 -495.59,139.38 -649.28,232.77 -146.1,88.79 -420.38,285.11 -474.74,425.38z"/>
   <path class="fil2" d="M10188.97 4763.92l2765.37 -9.65 3.75 -749.76 -1872.58 -4.56 -4.48 -814.05c226.04,-0.65 1506.44,25.42 1606.2,-12.79l3.33 -705.96c-179.07,-47.54 -1547.07,21.77 -1594.53,-25.67 -45.93,-66.01 -14.51,-279.84 -14.66,-377.6 -0.19,-132.79 -0.82,-265.29 -1.64,-398 135.42,-34.9 1509.95,7.87 1824.63,-9.01 24.21,-87.86 17.88,-613.34 10.55,-731.17l-2723.81 -0.05 -2.13 3838.27z"/>
   <path class="fil1" d="M27342.94 3199.57c100.81,-266.81 415.34,-776.51 529.18,-1058.02 43.37,41.22 18.71,-1.85 37.73,62.24l94.84 859.33 81.3 623.81c-112.19,32.77 -818.3,6.18 -1009.2,9.68l266.15 -497.04zm-1868.4 1900.13l889.29 8.48 240.83 -480.22 99.11 -225.8 1476.7 -1.53 86.51 702.19 962.66 4.25 -644.41 -3796.03 -1040.65 -0.2c-78.24,152.42 -173.7,310.67 -258.36,471.15 -46.72,88.57 -82.23,144.79 -130.98,235.09 -153.32,284.06 -535.93,948.2 -649.04,1186.23l-518.8 948.85c-88.71,165.64 -167.89,316 -259.41,473.85l-253.44 473.68z"/>
   <path class="fil1" d="M35885.86 4357.61l-1675.49 -2.07 144.37 -763.63c121.66,-32.77 1004.36,-15.85 1250.44,-16.42 221.76,-0.52 255.92,67.85 274.87,-144.67l105.57 -581.85c-314.05,-25.25 -1289.32,32.82 -1477.77,-18.77l138.92 -757.56c329.99,-34.92 1567.22,15.4 1734.75,-33.91l109.9 -719.06 -2576.76 -8.9 -737.64 3793.6 2585.42 1.65c43.15,-81.14 152.03,-695.41 123.41,-748.42z"/>
   <path class="fil1" d="M29847.88 4119.8c-25.45,124.53 -92.02,237.2 -142.27,360.68 -40.93,100.57 -137.17,260.98 -156.56,344.19 57.85,60.22 325.68,158.58 426.25,193.76 172.42,60.32 338.92,93.99 527.45,120.15 680.01,94.38 1530.06,25.02 1946.34,-533.62 180.92,-242.8 326.44,-609.51 252.05,-1019.03 -67.68,-372.51 -284.91,-538.12 -623.72,-648.95 -272.7,-89.19 -815.6,-155.26 -976.18,-300.67 -137.94,-124.92 -173.47,-598.71 485.87,-637.71 663.79,-39.25 952.23,205.93 1065.08,221.66 38.22,-54.72 112.41,-259.07 148.3,-338.96 39.42,-87.75 124.31,-266.12 145.59,-346.06 -767.83,-439.19 -2311.12,-403.71 -2759.72,508.05 -146.57,297.9 -220.67,749.75 -24.19,1043.68 458.02,685.19 1716.38,289.37 1611.7,946.73 -80.8,507.45 -1071.17,402.51 -1452.91,276.59 -136.59,-45.05 -376.9,-175.88 -473.09,-190.5z"/>
   <path class="fil1" d="M22797.57 3771.15l-242.54 1339.44 2630.17 -3.63 71.25 -726.37c-9.35,-51.1 -322.48,-19.94 -379.89,-19.88 -246.65,0.23 -1171.56,18.88 -1287.79,-9.13 12.35,-177.93 224.83,-1237.88 272.39,-1518.19 53.7,-316.54 271.85,-1341.4 288.92,-1523.87l-900.27 5.3 -452.25 2456.33z"/>
   <path class="fil2" d="M18621.01 4766.31l818.67 -3.21 6.63 -3101.02c-42.96,41.64 -11.56,-7.72 -33.37,50.78 -3.02,8.11 -7.29,43.86 -7.88,53.48 -1.1,18.27 2.31,65.34 2.51,87.91l-0.09 2848.02c-37.18,-156.17 -6.05,-571.71 -10.76,-768.74 -6.08,-254.32 -6,-514.43 -3.13,-768.83 2.13,-188.07 -41.75,-1489.63 34.82,-1519.48 105.92,-41.31 301.37,-7.48 538.13,-15.14 174.1,-5.64 356.89,6.1 528.49,-2.82 -39.41,-637.93 114,-657.78 -178.88,-659.35l-576.78 -2.38c-660.43,-3.59 -1670.03,-25.6 -2263.14,2.18 -36.27,111.09 11.03,469.96 -17.68,641.87 16.44,7.2 2.66,5.77 40.34,15.29l231.05 7.83c98.95,-0.14 198.14,0.49 297.05,-1.19 117.32,-1.99 484.37,-16.72 572.27,15.29 53.27,184.8 1.64,2637.19 21.74,3119.53z"/>
   <path class="fil1" d="M909.28 2989.97c12.14,169.16 53.91,339 114.3,474.6 433.36,973.31 2192.82,874.83 2115.96,-772.38 -56.91,-1219.78 -1505.35,-1385.58 -2023.33,-660.17 -167.93,235.18 -232.45,602.49 -206.93,957.94z"/>
   <path class="fil2" d="M8512.19 4762.87l854.87 1.99 6.71 -3829.7 -870.16 -9.91c-26.79,622.56 -0.62,1298.04 -3.06,1924.93 -1.01,262.01 -27.76,1787.22 11.64,1912.68z"/>
   <path class="fil1" d="M6772.14 2550.64c19.61,-62.96 -4.45,-32.06 43.48,-68.45 -2.96,-117.2 67.99,-237.7 -5.07,-489.65 -45.98,-158.59 -109.83,-254.55 -258.49,-299.89 -204.87,-62.49 -842.64,-42.47 -1090.84,-37.31l2.31 1119.15c238.25,10.28 869.92,24.35 1088.68,-59.25 157.36,-60.13 132.06,-103.65 219.94,-164.6z"/>
   <path class="fil0" d="M38853.15 2976.23c110.37,-57.66 232.33,-200.42 271.69,-363.71 23.78,-98.66 20.31,-188.85 -15.42,-277.42 -33.44,-82.91 -88.97,-138.5 -166.72,-166.39 -0.12,53.64 2.93,35.84 -69.82,10.36 -42.88,-15.02 -47.04,-20.21 -90.4,-32.89 -156.03,-45.62 -689.4,-60.69 -737.78,-22.5 -4.59,7.98 -11.59,17.19 -18.37,39.25 -4.66,15.14 -7.34,33.76 -10,53.06 -30.96,224.88 -169.33,706.68 -139.83,845.34 629.5,71.31 925.96,-112.78 926.9,-112.78 64.8,0 15.12,-31.37 49.75,27.69z"/>
   <path class="fil0" d="M27342.94 3199.57c65.49,0.15 18.01,59.76 -61.5,215.03 -22.81,44.54 -31.15,50.5 -62.95,101.89 -5.91,9.56 -29.64,53.8 -30.8,59.22 -10.97,51.1 4,56.71 12.82,71.69l838.74 3.93c-9.06,-93.4 -28.58,-194.86 -40.89,-292.72l-30.77 -230.01c11.35,-112 -11.89,-36.59 37.1,-65.49l-94.84 -859.33c-19.02,-64.09 5.64,-21.02 -37.73,-62.24 -113.84,281.5 -428.36,791.2 -529.18,1058.02z"/>
   <path class="fil3" d="M15759.61 6366.57c63.51,66.04 231.85,624.39 292.91,650.79 114,7.84 102.95,-33.08 140.98,-131.47 41.64,-107.73 169.9,-491.88 229.29,-524.15l15.26 665.43 179.05 -2.95 -43.15 -981.77 -204.4 6.93c-52,110.9 -101.33,220.35 -144.91,329.92 -30.18,75.88 -99.41,260.37 -137.17,324.79 -58.87,-40.02 -218.97,-538.57 -266.14,-658.64l-205.7 1.83c-21.93,148.93 -77.94,862.2 -55.48,979.87l167.12 -11.62 32.35 -648.96z"/>
   <path class="fil3" d="M9015.91 6863.76c13.52,-95.14 54.36,-188.02 66.34,-309.67 11.1,-112.91 13.28,-232.49 18.13,-353.1l293.97 9.67 -8.37 654.6 -370.07 -1.5zm-141.96 158.93l632.2 3.33c-1.44,196.43 -28.36,233.93 80.03,233.06 19.37,-0.16 34.01,-4.14 51.54,-7.71 4.43,-0.9 12.25,0.73 15.38,-5.5 3.11,-6.16 10.08,-3.85 17.1,-6.13l-1.31 -358.23 -93.87 -9.6 -6.97 -825.82c-105.66,-14.34 -552.09,-22.59 -635.32,10.05 -12.08,192.79 -2.85,527.78 -83.38,705.6 -52.44,115.81 -54.94,67.89 -129.87,134.87l1.93 355.44 154.8 0.86 -2.27 -230.24z"/>
   <path class="fil3" d="M6043.55 6648.61c1.75,-59.19 -8.89,-129.07 -13.68,-197.02 12.16,18.14 14.07,11.71 24.51,49.37 4.98,17.98 7.67,51.27 9.04,70.82 3.11,44.09 7.34,96.44 8.6,140.01 2.62,90.13 -14.07,176.77 0.37,265.26l100.12 1.42c6.15,-150.74 -18.76,-282.47 -26.25,-441.61 -6.69,-142.2 44.88,-304.18 -9.3,-453.67l-148.54 -16.43c-72.15,126.43 -63.02,182.34 -105.61,273.98 -56.68,121.94 4.89,60.44 -69.82,39.15 -17.16,68.1 -100.14,290.92 -139.64,325.2 -42.38,-64.39 -182.57,-550.1 -262.23,-667.64l-208.47 8.67c-9.01,188.07 -63.86,832.7 -32.19,978.4l161.2 -7.74c24.82,-150.06 -5.79,-592.65 27.16,-652.37 31.3,31.87 113.15,255.96 136.02,315.07l133.29 331.26 107.31 -6.81 24.38 -50.23c61.89,-141.41 207.37,-492.56 222.94,-601.66 29.25,33.79 18.7,-11.53 34.93,72.53l19.55 210.54c0.75,-2.34 3.92,9.15 6.3,13.51z"/>
   <path class="fil4" d="M1539.42 891.92c36.04,56.04 -13.67,14.68 45.2,30.86l366.91 -10.26c554.7,-15.29 879.76,69.09 1330.22,379.31 129.21,88.98 230.22,215.31 317.19,331.76 30.44,40.76 55.89,70.33 86.08,124.01 58.89,104.67 96.62,174.31 143.63,285.62 181.71,430.33 131.11,1045.45 29.53,1492.03 -45.78,201.27 -255.44,554.42 -379.99,676.59 -466.42,457.54 -1122.59,651.74 -1788.58,557 -235.3,-33.47 -621.87,-130.29 -803.37,-271.71l-134.31 -87.13c-214.17,-170.35 -366.4,-333.35 -490.31,-580.32 -115.37,-229.93 -208.99,-608.53 -202.71,-882.08 9.49,-412.63 19.65,-740.18 202.04,-1101.62 54.68,-108.37 68.9,-111.04 124.74,-187.42 92.7,-126.81 73.3,-68.03 29.71,-98.47 -101.38,51.66 -265.09,399.13 -307.82,557.14 -142.47,526.91 -135.6,1368.33 178.53,1849.03 121.97,186.66 259.22,335.47 423.31,468.12 815.18,659.02 2729.13,582.12 3181.88,-840.43 132.81,-417.28 139.58,-1170.64 -19.89,-1569.79 -175.46,-439.17 -446.17,-713.82 -828.36,-920.6 -466.37,-252.33 -927.01,-258.3 -1503.62,-201.64z"/>
   <path class="fil3" d="M4055.76 7018.94c46.61,12.38 111.8,18.97 159.05,-0.43 44.91,-18.45 285.04,-408.28 342.33,-497.87 41.92,-65.57 78.78,-153.95 138.2,-190.34l5.34 691.79 163.44 -4.5 0.07 -969.41 -194.28 -6.38 -429.37 642.22 -14.61 -76c-1.02,-23.83 1.31,-62.9 1.75,-88.4l-1.23 -479.37 -179.86 1.87 9.16 976.82z"/>
   <path class="fil3" d="M12048.76 7021.43c2.37,47.02 0.18,83.36 0.43,128.55 0.45,80.28 -17.19,79.37 36.79,102.55 -24.67,-70.32 -32.11,-8.95 0.09,-45.12 47.54,30.42 22.23,39.68 87.45,-4.96 21.8,-91.05 31.74,-212.22 4.99,-295.21l-92.53 -38.09c-20.89,-131.84 -18.47,-315.38 -21.75,-454.4 -6.93,-294.89 56.85,-369.23 -126.19,-327.58l-26.7 792.5c-87.29,41.88 -239.41,38.01 -331.99,10.2 -70.33,-91.41 -40.63,-290.83 -39.75,-422.71 1.76,-266.15 47.16,-396.56 -82.56,-393.35 -30.92,38.09 -18.08,3.78 -27.77,61.02l6.41 367.28c1.04,116.16 8.83,278.9 -31.07,374.86 -86.15,42.61 -181.01,26.93 -279.57,26.93 -133.88,-24.27 -29.02,0.53 -55.89,-44.51l2.15 -619.41c0.97,-142.9 23.11,-162.53 -30.28,-193.58l13.65 70.12c-41.05,-41.07 -6.62,-44.32 -133,-48.81l-0.89 910.82c151.26,-13.76 412.2,0.06 571.21,10.84 173.68,11.77 383.08,-38.66 563.11,17.29l-6.32 14.76z"/>
   <path class="fil3" d="M7081.89 6546.55c82.7,-1.1 178.33,-5.08 253.71,25.82 91.65,37.57 285.77,327.74 -252.66,302.18l-1.05 -327.99zm4.01 -355.45l493.66 -6.09 -8.28 -147.63c-122.54,-13.1 -550.37,-6.24 -667.92,20.27l4.61 958c90.21,36.41 371.47,33.41 473.89,8.97 341.83,-81.59 285.84,-452.26 117.43,-567.55 -107.03,-73.27 -288.79,-58.09 -421.64,-48.17l8.25 -217.79z"/>
   <path class="fil4" d="M18621.01 4766.31c-20.1,-482.34 31.52,-2934.73 -21.74,-3119.53 -87.9,-32.01 -454.95,-17.28 -572.27,-15.29 -98.9,1.67 -198.09,1.05 -297.05,1.19l-231.05 -7.83c-37.67,-9.52 -23.89,-8.08 -40.34,-15.29 28.71,-171.91 -18.58,-530.78 17.68,-641.87 593.11,-27.78 1602.71,-5.77 2263.14,-2.18l576.78 2.38c292.88,1.58 139.47,21.43 178.88,659.35 -171.6,8.93 -354.39,-2.81 -528.49,2.82 -236.76,7.66 -432.22,-26.17 -538.13,15.14 -76.57,29.86 -32.69,1331.42 -34.82,1519.48 -2.87,254.4 -2.95,514.51 3.13,768.83 4.71,197.02 -26.42,612.57 10.76,768.74l0.09 -2848.02c-0.2,-22.57 -3.61,-69.64 -2.51,-87.91 0.58,-9.62 4.85,-45.37 7.88,-53.48 21.81,-58.5 -9.59,-9.14 33.37,-50.78l1095.37 8.62 -2.49 -735.27 -3106.1 -8.11 -0.81 745.6c124.83,0.13 1133.24,-43.27 1138.91,18.32l6.12 2976.92c7.69,135.67 -2.33,61.42 43.7,98.17z"/>
   <path class="fil3" d="M14774.27 6883.84l-1.72 -288.44c151.33,-2.88 373.77,-18.29 382.6,135.79 10.03,175.12 -238.13,159.11 -380.87,152.64zm-7.65 -690.24c129.5,-41.12 359.79,0.08 352.32,131.74 -6.7,118.01 -221.02,155.52 -351.12,132.57l-1.2 -264.32zm487.95 741.23c27.14,-15.43 25.21,-3.05 53.87,-43.33 9.41,-13.22 20.54,-46.32 23.61,-62.09 43.33,-222.43 -104.89,-272.05 -146.87,-312.94 8.23,-13.26 190.31,-146.56 84.16,-322.84 -93.16,19.52 -30.69,9.08 -74.62,-21.35 -39.15,-27.13 -47.97,-79.79 -193.4,-92.81 -142.26,-12.73 -228.49,-3.81 -364.23,3.19l-1.23 908.14c87.6,12.3 229.97,14.72 334.07,7.98 164.75,-10.66 143.88,-14.84 271.29,-69.12l13.34 5.16z"/>
   <path class="fil3" d="M2151.08 6205.07c-0.2,-39.19 324.57,-70.85 335.56,142.68 11.38,221.29 -212.1,224.38 -334,196.26l-1.57 -338.94zm1.3 514.99c142.4,-27.67 286.83,15.59 404.61,-82.97 166.06,-138.97 213.13,-512.38 -134.83,-590.56 -105.35,-23.67 -339.6,-11.66 -452.29,2.46l-0.67 732.7c0.27,41.05 -0.23,82.25 -0.02,123.16 0.32,60.65 -22.94,174.76 183.04,103.97l0.18 -288.76z"/>
   <path class="fil4" d="M14462.35 2367.17l891.39 1199.5c91.81,121.87 891.06,1187.35 925.93,1199.63l687.19 -1.98c24.87,-96.71 8.59,-2565.67 8.57,-2892.65l-0.05 -733.89c1.09,-181.33 26.12,-186.89 -37.09,-210.45 -27.48,125.39 -11.2,1646.08 -9.39,1905.37l-0.24 1432.82c0.1,81.4 -1.84,163.44 -0.55,244.63 1.22,77.01 19.53,173.61 -13.68,201.52 -51.51,30.76 -521.36,15.5 -617.28,10.19l-512.47 -676.78c-29.4,-43.72 -43.44,-38.53 -70.78,-70.4 -36.73,-42.82 -19.57,-46.73 -53.44,-87.47 -19.99,-24.06 -38.48,-29.02 -60.88,-60.11 -32.86,-45.59 -13.98,-42.62 -50.05,-91.03 -20.32,-27.27 -43.15,-41.9 -58.39,-62.23 -20.65,-27.56 -22.67,-49.17 -51.57,-86.14l-240.11 -303.94c-71.67,-75.3 -5.97,-34.98 -110.17,-152.08 -37.17,-41.77 -21.38,-32.09 -49.2,-74.94 -36.6,-56.36 -16.2,6.26 -114.82,-147.32 -22.95,-35.74 -42.24,-40.13 -65.95,-72.9 -25.24,-34.9 -15.82,-39.29 -43.81,-78.37l-288.09 -375.18c-29.99,-46.51 -14.16,-38.88 -70.5,-50.79l5.45 34.98z"/>
   <path class="fil3" d="M19848.81 6193.93l449.94 -6.04 -3.98 -158.34 -621.01 23.51 5.01 966.75 610.27 -3.32c21.11,-55.99 22.64,-100.76 0.75,-157.42l-446.12 0.17 1.93 -273.58c117.56,-5.92 303.68,23.18 409.79,-13.48l-2.05 -122.48c-94.5,-33.33 -294.73,-8.34 -409.81,-15.54l5.28 -240.22z"/>
   <path class="fil3" d="M3045.58 6624.43c-67.39,-528.37 480.18,-578.56 565.33,-191.27 19.85,90.27 10.23,203.41 -30.83,283.98 -89.24,175.09 -318.62,206.76 -445.4,86.58l-16.67 -17.07c-46.38,-48.23 -61.38,-75.52 -72.43,-162.22zm644.58 262.66c25.59,-38.13 50.4,-64.58 70.94,-122.8 -48.21,-61.87 7.44,-103.7 11.39,-191.5 1.78,-39.51 -20.52,-163.72 -33.02,-203.75 -33.34,-106.76 -101.93,-197.75 -179.35,-250.57l-21.3 -14.04c-3.29,-2.01 -7.61,-4.75 -10.98,-6.64 -34.54,-19.5 -7.95,-7.54 -34.33,-17.17 -15.58,-5.68 -48.3,-12.08 -90.68,-19.32 -123.91,-21.17 -267.58,-14.18 -357.49,85.12 -64.63,71.38 -51.65,8.38 -104.89,116.89 -73.98,150.8 -104.25,463.94 83.64,633 115.31,103.76 190.96,111.63 359.94,103.16 247.56,-12.42 200.91,-136.25 277.14,-126.28l28.99 13.87z"/>
   <path class="fil4" d="M909.28 2989.97c-25.52,-355.45 39,-722.76 206.93,-957.94 517.98,-725.42 1966.42,-559.62 2023.33,660.17 76.85,1647.21 -1682.6,1745.69 -2115.96,772.38 -60.39,-135.61 -102.15,-305.45 -114.3,-474.6zm890.32 -1418.48c-297.18,51.7 -582.91,204.27 -746.92,468.48 -242.31,390.33 -271.87,1137.63 6.03,1582.82l70.96 103.31c2.33,2.9 5.6,6.87 7.94,9.76 2.33,2.86 5.52,6.87 7.85,9.72l320.21 255.98c461.62,220.85 1039.61,143.81 1372.23,-195.14 161.91,-164.98 244.09,-371.11 309.9,-620.41 53.61,-203.05 36.09,-620.95 -21.89,-830.36 -27.92,-100.81 -54.66,-146.98 -88.32,-227.34 -24.05,-57.41 -10.74,-39.6 -50.39,-86.65 -18.71,-22.2 -14.59,-14.46 -32.19,-38.45 -115.51,-157.52 -117.1,-149.58 -278.61,-260.78 -233.29,-160.6 -604.19,-218.37 -876.79,-170.95z"/>
   <path class="fil1" d="M3045.58 6624.43c11.06,86.7 26.05,113.99 72.43,162.22l16.67 17.07c126.78,120.18 356.16,88.51 445.4,-86.58 41.06,-80.57 50.68,-193.7 30.83,-283.98 -85.15,-387.29 -632.73,-337.11 -565.33,191.27z"/>
   <path class="fil4" d="M13606.59 4719.92c42.13,10.11 13.92,15.25 34.13,-0.09 -12.74,-135.35 3.89,-326.86 3.27,-471.78l6 -2358.9c1.66,-153.67 -36.36,-846.31 11.21,-922.52 23.07,-17.45 -7.11,-8.76 30.9,-13.38 3.21,-0.4 8.49,-0.4 12.07,-0.45l76.08 10.23c124.59,9.72 311.87,-10.59 451.14,6.82 154.2,19.27 117.89,56.3 209.47,173.52l402.42 523.71c14.34,20.63 10.54,19.61 27.25,42.47 33.13,45.29 35.59,33 66.4,72.45l120.96 176.57c30.16,44.23 38.91,54.93 67.35,88.46 134.47,158.52 379.14,517.75 529.16,694.48 149.05,175.58 217.54,287.64 342.66,461.1 85.59,118.63 95.3,115.35 126.75,76.53l-329.38 -432.57c-23.17,-31.31 -29.24,-32.66 -55.88,-66.35l-1396.69 -1851.38 -733.19 -1.28 -2.07 3792.36z"/>
   <path class="fil3" d="M16901.39 6047.89c113.2,0.56 23.8,-11.88 59.65,52.25 -50.55,34.37 -26.06,845.53 -17.39,884.61 142.25,20.35 174.23,-35.05 455.45,-10.29 93.15,8.2 83.26,6.86 117.77,-65.01 -89.84,-18.16 -495.5,13.09 -427.43,-37.79l-11.64 -284.69 390.94 2.08 9.51 -139.16c-101.83,-34.5 -287.63,-9.27 -398.02,-6.7l1.73 -245.2 448.87 -32.95 0.77 -128.31 -630.22 11.17z"/>
   <path class="fil3" d="M17940.58 6087.52c91.92,70.04 6.1,-38 -105.94,132.11 -2.13,3.24 -4.73,7.7 -6.84,10.98 -134.62,208.49 -95.43,501.65 24.74,621.83 73.05,73.07 136.1,149.84 314.03,147.3 90.73,-1.29 153.79,4.36 223.9,-30.24 124.3,-61.36 94.31,-31.58 79.09,-141.48 -68.06,21.07 -67.09,40.1 -150.39,57.37 -42.02,8.72 -125.13,11.13 -166.52,18.53 126.13,0 97.02,-15.78 118.88,-32.87 -481.98,6.81 -407.22,-451.05 -276.19,-593.09 47.1,-51.07 46.54,-58.7 126.72,-79.53 181.25,-47.08 205.51,35.21 324.3,78.4 32.48,-35.81 64.45,-72.48 86,-107.03 -77.74,-181.98 -406.06,-167.53 -525.52,-125.5 -51.86,18.25 -37.86,12.3 -66.26,43.22z"/>
   <path class="fil3" d="M13488.77 6865.28c-34.22,-53.27 -16.56,-177.84 -16.35,-253.66l400.75 -0.61 -7.3 -160.67 -388.48 1.11 1.11 -255.34 3.4 2.8c143.34,-32.73 297.12,-8.05 433.36,-32.9 -8.3,-81.55 3.86,-92.26 -97.81,-93.63l-484.23 27.85c-23.82,67.22 -15.38,762.51 -10.49,884.29 106.16,13.46 280.84,-7.85 476.96,3.78 102.38,6.07 91.66,11.75 109.72,-76.06 -100,-36.14 -336.19,38.18 -420.64,-46.97z"/>
   <path class="fil3" d="M10158.85 6856.59c60.82,28.55 -4.6,19.99 -55.35,33.81 -35.71,9.72 -82.89,24.64 -110.99,26.32l-13.77 93.42c99.17,13.27 91.32,3.51 185.14,-25.21 136.31,-41.72 216.92,-208.32 270.19,-331.7 32.61,-75.53 38.08,-126.62 113.64,-286.84 41.83,-88.72 93.17,-195.06 100.88,-299.93l-97.26 15.42 -156.86 383.9c-48.65,147.68 -41.31,108.78 -65.76,95.46 -48.77,44.44 -2.22,19.93 -61.45,53.04 -48.43,-160.41 -232.96,-481.71 -253.62,-579.32l-207.14 1.48c30.69,151.87 290.4,599.39 371.53,762.72 -8.69,35.5 -2.08,29.04 -19.2,57.43z"/>
   <path class="fil3" d="M12593.82 6868.96l-2.37 -268.84 401.52 2.51 -0.42 -152.22 -394.14 -8.26 1.37 -235.1 312.83 -0.96c-4.23,-2.01 -10.65,-9.27 -13.09,-5.14l-114.77 -12.05c-50.21,-1.43 -83.36,-0.4 -121.1,-14.77 149.26,-7.3 342.08,26.5 365.89,-21.57 1.07,-5.84 3.4,-20.46 2.82,-17.59 -0.14,0.68 8.38,-34.44 -18.93,-54.5 -48.41,-35.55 -515.69,12.53 -543.04,19.67 -13.22,32.57 -31.15,808.9 -22.41,873.76 119.98,3.96 166.5,5.45 302.07,-2.73 265.01,-16.01 236.64,75.63 292.33,-63.53 -63.98,-12.97 -359.31,-14.85 -467.15,-21.02 -34.42,-106.67 -31.02,-161.48 -17.3,-272.54 6.47,121.45 -11.54,203.5 35.88,254.89z"/>
   <path class="fil3" d="M1276.92 7023.16l167.83 -4.31 0.81 -815.76c75.93,-7.16 180.15,3.5 243.08,-5.03 76.72,-10.4 62.55,-80.52 44.61,-159.08 -142.35,-22.33 -459.21,0.38 -621.29,1.03 -38.35,0.15 -106.1,-11.68 -127.01,19.05 -16.5,24.25 -15.5,106.45 6.65,126.64 22.63,20.61 229.72,13.94 279.22,16.81l6.1 820.66z"/>
   <path class="fil3" d="M8022.05 6867.06l-143.92 12.34 6.31 155.41c187.85,54.54 370.53,-43.16 436.87,-157.71 61.01,-105.35 156.5,-314.33 190.3,-428.87 -34.08,-67.88 -22.56,-51.31 8.59,-118.01 16.94,-36.27 22.5,-51.4 36,-87.44 61.1,-163.04 73.13,-90.2 52.34,-164.51 -128.1,-48.65 -138.62,112.28 -156.24,155.88l-95.25 239.61c-75.39,188.87 -70.52,107.3 -76.67,97.17 -44.66,25.35 -7.84,6.76 -64.19,24.65 -11.5,-75.22 -20.85,-97.18 -57.61,-151.78 -64.7,49.81 20.46,29.59 -32.36,12.25l-37.94 -65.66c-130.07,-308.62 -69.54,-317.17 -239.97,-308.63 -4.08,90.17 131.34,292.12 176.47,379.68 33.08,64.17 54.98,138.04 85.01,193.85 53.35,99.12 60.09,81.39 49.21,204.2 -9.46,2.55 -63.24,23.77 -65.28,24.2 -103.63,21.68 -42.55,25.03 -71.67,-16.64z"/>
   <path class="fil4" d="M5567.05 3479.38l549.79 -1.07c58.54,95.51 124.24,204.92 189,311.74l394.19 654.51c58.15,94.95 135.94,248.85 200.6,321.28l1020.64 -2.47c15.72,-142.65 -844.7,-1354.86 -938.06,-1406.53l851.48 1350.01 -907.87 15.5c-20.05,-30.55 -48.28,-72.5 -67.72,-105.5l-712.99 -1154.27c-71.05,-49.27 -162.68,-16.89 -280.53,-19.67 -157.72,-3.71 -228.22,-22.66 -298.53,36.48z"/>
   <path class="fil4" d="M6982.29 3320.4c949.58,-261.9 900.68,-1631.2 454.85,-2024.07 -307.46,-270.93 -635.22,-364.29 -1169.7,-368.35 -518.45,-3.93 -1039.29,6.36 -1557.26,-1.37 17.41,54.88 -20.97,20.47 37.08,36.03 495.1,4.12 990.66,-1.85 1485.24,3.06 399.03,3.97 689.74,42.57 1004.16,236.59 114.65,70.75 -1.1,-23.55 139.96,100.64 106.36,93.62 233.95,283.04 277.1,455.06 39.73,158.43 56.71,557.14 19.49,717.06 -15.47,66.45 -21.91,58.11 -38.17,130.54 -11.38,50.71 -27.27,94.3 -52.41,142.49 -41.41,79.36 -93.8,166.5 -146.12,223 -40.65,43.89 -140.09,135.82 -196.18,171.68 -50.88,32.53 -199.69,112.26 -258.89,125.43l0.84 52.22z"/>
   <path class="fil5" d="M25256.45 4380.6l-71.25 726.37 -2630.17 3.63 242.54 -1339.44c-84.87,-56.24 -17.74,-20.9 -48.9,5.12 -28.86,233.23 -84.35,445.21 -118.21,681.03 -28.07,195.55 -141.3,522.98 -74.58,694.81 169.62,22.16 461.74,3.29 643.24,0.94 222.57,-2.88 1934.83,24.11 1991.97,-8.41 59.1,-70.11 66.75,-236.2 68.99,-362.71 1.15,-64.68 12.67,-128.55 19.22,-193.28 2.5,-24.64 10.55,-69.75 12.69,-95.33 10.9,-130.67 -16.27,-96.86 -35.52,-112.72z"/>
   <path class="fil3" d="M154.31 6138.61c-27.39,-5.22 -20.76,-10.87 -19.81,17.03 -0.55,144.08 -101.53,104.75 -92.4,363.64 4.27,121.16 30.78,312.05 145.3,383.79 4.33,2.71 17.18,9.92 21.32,12.75 77.38,52.92 96.63,92.78 275.14,91.39 208.57,-1.62 242.38,-72.6 314.52,-120.7 -37.32,-20.15 -58.66,-40.51 -70.07,-85.96 -85.46,39.74 -158.5,78.36 -279.58,66.12 -27.7,26.34 -1.75,14.25 -48.88,19.17 -45.04,4.71 -79.7,-16.94 -111.99,-43.53 -167.02,-137.61 -154.99,-366.61 -54.99,-569.24 37.32,-75.61 38.06,-77.03 153.18,-117.45 147.4,-51.76 238.22,22.7 351.22,57.5l38.53 -73.18c-12.22,-3.83 -246.55,-169.03 -489.02,-60.05 -70.46,31.68 -35.37,54.38 -132.48,58.69z"/>
   <path class="fil3" d="M18985.38 6229.53c59.58,12.21 41.95,129.47 42.49,185.19l-0.41 455.74c0.69,75.29 2.62,118.19 82.88,118.09 57.54,-77 22.66,-499.51 25.52,-608.68 1.55,-58.96 0.7,-120.88 34.98,-161.85 187.82,-65.84 307.42,106.21 280.04,-162.36 -80.48,-25.33 -678.39,-22.27 -773.64,-0.7l7.18 139.39c58.5,17.06 267.69,-21.12 300.96,35.19z"/>
   <path class="fil1" d="M9015.91 6863.76l370.07 1.5 8.37 -654.6 -293.97 -9.67c-4.84,120.62 -7.02,240.19 -18.13,353.1 -11.98,121.65 -52.82,214.53 -66.34,309.67z"/>
   <path class="fil4" d="M6772.14 2550.64c-87.88,60.95 -62.58,104.47 -219.94,164.6 -218.76,83.6 -850.42,69.53 -1088.68,59.25l-2.31 -1119.15c248.2,-5.16 885.97,-25.18 1090.84,37.31 148.66,45.34 212.51,141.3 258.49,299.89 73.06,251.95 2.11,372.45 5.07,489.65 45.43,39.14 0.67,43.05 31.53,-13.28 49.34,-90.08 27.93,-418.57 2.91,-500.11 -123.37,-402.13 -419.41,-356.3 -897.14,-356.87 -426.18,-0.52 -376.8,-55.04 -534.61,55.25 4.71,261.07 -35.76,904.13 9.27,1113.21 90.42,46.57 641.99,35.44 787.47,35.8 128.17,0.32 248.29,-7.35 356.74,-64.33 277.07,-145.56 134.81,-119.17 232.2,-169.8 7.1,-47.69 9.71,-28.92 -31.86,-31.41z"/>
   <path class="fil5" d="M35885.86 4357.61c-8.21,-59.54 -246.49,-33.27 -368.03,-34.37 -271.89,-2.45 -1075.45,16.94 -1237.19,-14.38 -26.75,-82.49 88.26,-575.88 118.89,-676.53 188.97,-52.38 1375.67,14.38 1457.06,-24.7 28.51,-13.69 102.64,-103.89 23.47,-176.8 -18.95,212.52 -53.11,144.15 -274.87,144.67 -246.08,0.57 -1128.79,-16.35 -1250.44,16.42l-144.37 763.63 1675.49 2.07z"/>
   <path class="fil5" d="M38853.15 2976.23c-34.63,-59.06 15.05,-27.69 -49.75,-27.69 -0.94,0 -297.4,184.1 -926.9,112.78 -29.5,-138.66 108.87,-620.46 139.83,-845.34 2.65,-19.3 5.34,-37.92 10,-53.06 6.78,-22.06 13.78,-31.26 18.37,-39.25 48.38,-38.2 581.75,-23.12 737.78,22.5 43.36,12.68 47.52,17.87 90.4,32.89 72.75,25.48 69.7,43.28 69.82,-10.36 -73.04,-113.79 -808.75,-138.46 -932.34,-94.93 -40.46,77.11 -207.29,920.6 -200.53,1034.36 339.64,16.13 781.67,33.4 1043.33,-131.9z"/>
   <path class="fil6" d="M11069.14 6859.4c26.88,45.04 -77.99,20.24 55.89,44.51 98.57,0 193.42,15.67 279.57,-26.93 39.89,-95.96 32.11,-258.7 31.07,-374.86l-6.41 -367.28c9.69,-57.24 -3.15,-22.93 27.77,-61.02 129.72,-3.21 84.32,127.2 82.56,393.35 -0.87,131.87 -30.58,331.29 39.75,422.71 92.58,27.81 244.7,31.68 331.99,-10.2l26.7 -792.5c183.05,-41.66 119.26,32.69 126.19,327.58 3.28,139.01 0.86,322.55 21.75,454.4l92.53 38.09c26.75,82.99 16.81,204.17 -4.99,295.21 -65.22,44.65 -39.91,35.38 -87.45,4.96 -32.19,36.18 -24.76,-25.2 -0.09,45.12l129.92 6.1 0.31 -396.95 -119.94 -1.65c-46.38,-144.68 8.14,-605.79 -13.69,-812.47l-172.33 1.95 -7.1 813.76 -339.64 -6.14 -0.39 -813.4 -161.33 2.43c-4.52,136.84 -0.3,283 -0.25,421.02 0.02,69.93 -0.55,139.83 -0.62,209.75 -0.04,30.67 2.13,77.21 0.04,105.94 -8.59,117.96 -53.69,80.13 -331.81,76.54z"/>
   <path class="fil6" d="M3690.16 6887.09l-28.99 -13.87c-76.24,-9.97 -29.58,113.86 -277.14,126.28 -168.98,8.47 -244.63,0.59 -359.94,-103.16 -187.89,-169.06 -157.62,-482.2 -83.64,-633 53.24,-108.51 40.26,-45.51 104.89,-116.89 89.91,-99.3 233.59,-106.29 357.49,-85.12 42.38,7.24 75.1,13.64 90.68,19.32 26.38,9.63 -0.21,-2.33 34.33,17.17 3.37,1.89 7.69,4.63 10.98,6.64l21.3 14.04c77.42,52.82 146.01,143.81 179.35,250.57 12.5,40.03 34.8,164.24 33.02,203.75 -3.95,87.8 -59.61,129.62 -11.39,191.5 47.17,-118.26 57.37,-264.15 22.11,-397.13 -38.89,-146.65 -107.14,-224.92 -197.15,-277.67 -113.85,-66.73 -263.02,-83.91 -407.01,-53.89 -420.72,87.72 -399.74,752.39 -169.47,911.38 184.8,127.6 499.69,152.04 680.59,-59.89z"/>
   <path class="fil1" d="M2151.08 6205.07l1.57 338.94c121.9,28.12 345.38,25.03 334,-196.26 -11,-213.53 -335.76,-181.87 -335.56,-142.68z"/>
   <path class="fil6" d="M12593.82 6868.96c-47.42,-51.38 -29.41,-133.44 -35.88,-254.89 -13.72,111.06 -17.13,165.87 17.3,272.54 107.85,6.17 403.17,8.05 467.15,21.02 -55.69,139.16 -27.32,47.52 -292.33,63.53 -135.57,8.18 -182.08,6.7 -302.07,2.73 -8.75,-64.87 9.18,-841.19 22.41,-873.76 27.34,-7.14 494.62,-55.23 543.04,-19.67 27.31,20.06 18.79,55.19 18.93,54.5 0.57,-2.86 -1.75,11.75 -2.82,17.59 -23.81,48.06 -216.64,14.26 -365.89,21.57 37.74,14.37 70.89,13.34 121.1,14.77l114.77 12.05c2.44,-4.13 8.86,3.13 13.09,5.14l146.21 -9.15 1.8 -150.66c-118.73,-26.46 -503.5,1.73 -637.1,13.77l-10.41 962.8 642 -7.98 -8.02 -153.06 -453.27 7.17z"/>
   <path class="fil1" d="M7082.94 6874.54c538.43,25.57 344.31,-264.6 252.66,-302.18 -75.38,-30.9 -171.01,-26.92 -253.71,-25.82l1.05 327.99z"/>
   <path class="fil1" d="M14774.27 6883.84c142.74,6.47 390.91,22.48 380.87,-152.64 -8.83,-154.08 -231.27,-138.68 -382.6,-135.79l1.72 288.44z"/>
   <path class="fil5" d="M27342.94 3199.57l-266.15 497.04c190.9,-3.5 897.01,23.09 1009.2,-9.68l-81.3 -623.81c-48.99,28.9 -25.75,-46.51 -37.1,65.49l30.77 230.01c12.31,97.85 31.83,199.32 40.89,292.72l-838.74 -3.93c-8.82,-14.98 -23.78,-20.59 -12.82,-71.69 1.16,-5.42 24.88,-49.66 30.8,-59.22 31.8,-51.39 40.14,-57.36 62.95,-101.89 79.51,-155.27 126.99,-214.88 61.5,-215.03z"/>
   <path class="fil6" d="M15254.57 6934.83l-13.34 -5.16c-127.41,54.28 -106.54,58.46 -271.29,69.12 -104.1,6.74 -246.47,4.32 -334.07,-7.98l1.23 -908.14c135.74,-7 221.97,-15.92 364.23,-3.19 145.43,13.02 154.25,65.68 193.4,92.81 43.93,30.43 -18.53,40.86 74.62,21.35 -30.74,-74.05 -42.37,-84.11 -121.16,-115.72 -144.58,-58.02 -446.09,-55.68 -556.74,-26.1l-1.9 971.22c114.75,22.41 441.5,33.91 559.56,-8.19 59.17,-21.09 81.41,-35.63 105.47,-80z"/>
   <path class="fil6" d="M13488.77 6865.28c84.45,85.14 320.64,10.83 420.64,46.97 -18.06,87.81 -7.34,82.13 -109.72,76.06 -196.12,-11.63 -370.8,9.68 -476.96,-3.78 -4.89,-121.79 -13.33,-817.07 10.49,-884.29l484.23 -27.85c101.68,1.38 89.51,12.09 97.81,93.63 -136.25,24.84 -290.02,0.17 -433.36,32.9l-3.4 -2.8 457.05 3.87 -1.2 -157.35 -645.14 21.44 6.45 959.64 634.35 -5.17 -1.84 -139.42c-96.1,-33.88 -322.84,-7.24 -439.41,-13.84z"/>
   <path class="fil6" d="M10328.73 6561.25c24.45,13.32 17.11,52.23 65.76,-95.46l156.86 -383.9 97.26 -15.42c-7.72,104.87 -59.05,211.21 -100.88,299.93 -75.56,160.22 -81.03,211.31 -113.64,286.84 -53.27,123.38 -133.88,289.97 -270.19,331.7 -93.81,28.72 -85.97,38.49 -185.14,25.21l13.77 -93.42c28.09,-1.68 75.28,-16.6 110.99,-26.32 50.75,-13.82 116.17,-5.26 55.35,-33.81l-214.65 30.12 11.1 155.91c342.94,22.65 395.39,-109.75 503.6,-368.85 76.92,-184.21 202.43,-442.96 243.92,-636.41l-180.63 5.41c-42.35,117.9 -184.49,413.3 -193.48,518.47z"/>
   <path class="fil1" d="M14767.82 6457.92c130.11,22.94 344.43,-14.56 351.12,-132.57 7.47,-131.66 -222.82,-172.86 -352.32,-131.74l1.2 264.32z"/>
   <path class="fil5" d="M39079.84 3824.92c69.51,-54.7 2.53,24.66 24.42,-49.48 13.29,-45.03 -34.3,15.6 14.56,-49.32 19.82,-26.35 145.44,-53.02 286.25,-148.59 294.11,-199.66 384.48,-256.49 554.04,-598.19 1.76,-3.54 3.95,-8.11 5.72,-11.65l40.34 -82.53c15.59,-36.48 26.72,-68.55 40.05,-109.32l50.33 -169.09c-4.41,-154.76 11.68,-39.65 -37.82,-86.63 -22.58,211.65 -120.51,450.18 -236.37,614.92l-118.02 143.43c-276.49,311.92 -561.49,337.17 -679.84,430.12l56.35 116.33z"/>
   <path class="fil6" d="M17089.44 6871.65c-68.07,50.88 337.59,19.63 427.43,37.79 -34.51,71.87 -24.63,73.22 -117.77,65.01 -281.22,-24.76 -313.19,30.64 -455.45,10.29 -8.68,-39.08 -33.17,-850.23 17.39,-884.61 -35.85,-64.12 53.54,-51.68 -59.65,-52.25 -2.35,156.84 -21.72,877.42 10.99,971.19l615.01 -5.67 -7.17 -153.28 -430.77 11.51z"/>
   <path class="fil5" d="M25474.54 5099.7c-0.59,0.8 -56.67,27.03 32.84,56.37 37.19,12.19 81.96,7.2 120.24,5.68 81.57,-3.25 163.19,-1.29 244.91,-2.86 516.1,-9.96 482.13,87.63 640.35,-241.1 36.64,-76.12 130.48,-192.62 91.78,-289.82l-240.83 480.22 -889.29 -8.48z"/>
   <path class="fil6" d="M5812.99 6379.89c74.71,21.29 13.14,82.8 69.82,-39.15 42.59,-91.64 33.46,-147.55 105.61,-273.98l148.54 16.43c54.19,149.49 2.62,311.47 9.3,453.67 7.49,159.13 32.4,290.86 26.25,441.61l-100.12 -1.42c-14.43,-88.49 2.25,-175.13 -0.37,-265.26 -1.26,-43.58 -5.49,-95.92 -8.6,-140.01 -1.38,-19.54 -4.06,-52.84 -9.04,-70.82 -10.44,-37.66 -12.34,-31.23 -24.51,-49.37 4.79,67.96 15.43,137.83 13.68,197.02 -26.29,83.83 -13.83,278.53 -2.23,378.22l170.48 -6.72 -36.91 -975.3 -225.55 0.51c-17.85,63.69 -95.9,305.92 -136.36,334.57z"/>
   <path class="fil6" d="M18271.55 6871.04c-21.86,17.09 7.24,32.87 -118.88,32.87 41.39,-7.4 124.5,-9.82 166.52,-18.53 83.29,-17.27 82.33,-36.3 150.39,-57.37 15.22,109.9 45.21,80.12 -79.09,141.48 -70.11,34.6 -133.17,28.96 -223.9,30.24 -177.93,2.54 -240.99,-74.24 -314.03,-147.3 -120.16,-120.18 -159.36,-413.33 -24.74,-621.83 2.11,-3.28 4.71,-7.74 6.84,-10.98 112.04,-170.11 197.86,-62.07 105.94,-132.11 -293.7,70.67 -385.24,932.94 208.48,950.99 116.51,3.55 228.18,-13.55 323.68,-71.84l72.15 -62.67c-26.01,-48.81 -54.55,-98.48 -98.53,-127.91 -72.4,38.13 -56.21,62.23 -174.82,94.95z"/>
   <path class="fil6" d="M154.31 6138.61c97.11,-4.31 62.02,-27.01 132.48,-58.69 242.46,-108.98 476.79,56.22 489.02,60.05l-38.53 73.18c-113,-34.79 -203.82,-109.25 -351.22,-57.5 -115.12,40.42 -115.86,41.83 -153.18,117.45 -100,202.63 -112.03,431.63 54.99,569.24 32.28,26.59 66.95,48.23 111.99,43.53 47.12,-4.92 21.18,7.17 48.88,-19.17 -289.52,-46.17 -293.62,-351.93 -223.52,-518.69 145.35,-345.81 525.02,-71.31 525.02,-71.31l75.32 -136.03c-142.31,-150.53 -525.89,-182.05 -671.23,-2.05z"/>
   <path class="fil6" d="M12048.76 7021.43l6.32 -14.76c-180.02,-55.95 -389.42,-5.52 -563.11,-17.29 -159,-10.78 -419.95,-24.6 -571.21,-10.84l0.89 -910.82c126.38,4.49 91.95,7.74 133,48.81l-13.65 -70.12 -146.45 -1.68 9.1 975.25 1145.1 1.45z"/>
   <path class="fil6" d="M728.31 6800.57c11.4,45.45 32.75,65.81 70.07,85.96 -72.14,48.09 -105.95,119.07 -314.52,120.7 -178.51,1.39 -197.77,-38.48 -275.14,-91.39 -4.14,-2.83 -16.99,-10.03 -21.32,-12.75 -114.52,-71.74 -141.03,-262.63 -145.3,-383.79 -9.12,-258.9 91.85,-219.57 92.4,-363.64 -188.4,119.14 -166.8,576.88 -10.02,740.76 191.98,200.69 517.31,192.52 722.69,5.52 -34.55,-66.27 -48.42,-53.17 -71.4,-134.99 -51.74,16.51 -38.14,-8.23 -47.46,33.64z"/>
   <path class="fil6" d="M19170.85 6218.02c-34.28,40.96 -33.43,102.89 -34.98,161.85 -2.86,109.18 32.03,531.68 -25.52,608.68 -80.27,0.1 -82.19,-42.8 -82.88,-118.09l0.41 -455.74c-0.53,-55.71 17.09,-172.97 -42.49,-185.19l10.09 791.36 162.93 -0.77c35.62,-111.18 8.44,-640.85 12.44,-802.1z"/>
   <path class="fil6" d="M8022.05 6867.06c29.12,41.68 -31.96,38.33 71.67,16.64 2.04,-0.43 55.82,-21.65 65.28,-24.2 10.88,-122.81 4.14,-105.07 -49.21,-204.2 -30.04,-55.81 -51.94,-129.68 -85.01,-193.85 -45.13,-87.56 -180.55,-289.52 -176.47,-379.68 170.43,-8.54 109.9,0.01 239.97,308.63l37.94 65.66c52.82,17.34 -32.33,37.55 32.36,-12.25 -23.23,-72.35 -62.04,-136.47 -92.39,-202.05 -17.26,-37.27 -31.01,-72.8 -47.52,-110.12l-56.31 -92.88 -183.96 -4.68c28.13,122.35 137.33,286.7 191.74,407 35.58,78.64 167.86,308.36 175.81,368.31 -38.62,47.56 -51.39,43.87 -123.91,57.66z"/>
   <path class="fil6" d="M8280.38 6570.94c6.15,10.13 1.29,91.7 76.67,-97.17l95.25 -239.61c17.62,-43.61 28.14,-204.53 156.24,-155.88 20.78,74.32 8.76,1.48 -52.34,164.51 -13.5,36.04 -19.06,51.18 -36,87.44 -31.14,66.7 -42.67,50.14 -8.59,118.01 49.9,-101.55 137.13,-296.13 157.11,-410.97l-182.16 8.31c-25.99,40.66 -204.74,494.78 -206.18,525.35z"/>
  </g>
 </g>
</svg>
